<svg height="1000" width="1000" xmlns="http://www.w3.org/2000/svg"><path d="M0 999.936l0 -249.984l249.984 0l0 249.984l-249.984 0zm0 -374.976l0 -249.984l249.984 0l0 249.984l-249.984 0zm0 -374.976l0 -249.984l249.984 0l0 249.984l-249.984 0zm374.976 749.952l0 -249.984l249.984 0l0 249.984l-249.984 0zm0 -374.976l0 -249.984l249.984 0l0 249.984l-249.984 0zm0 -374.976l0 -249.984l249.984 0l0 249.984l-249.984 0zm374.976 749.952l0 -249.984l249.984 0l0 249.984l-249.984 0zm0 -374.976l0 -249.984l249.984 0l0 249.984l-249.984 0zm0 -374.976l0 -249.984l249.984 0l0 249.984l-249.984 0z"/></svg>