<svg height="1000" width="1000" xmlns="http://www.w3.org/2000/svg"><path d="M0 876.858l0 -626.913l294.903 0l31.248 -126.945l361.305 0l31.248 126.945l281.232 0l0 626.913l-999.936 0zm220.689 -345.681q0 117.18 83.002 199.206t199.206 82.026 198.23 -82.026 82.026 -199.206 -82.026 -199.206 -198.23 -82.026 -199.206 82.026 -83.002 199.206zm83.979 0q0 -82.026 57.614 -140.616t139.639 -58.59 140.616 58.59 58.59 140.616 -58.59 139.639 -140.616 57.614 -139.639 -57.614 -57.614 -139.639zm527.31 -138.663l142.569 0l0 -82.026l-142.569 0l0 82.026z"/></svg>