<svg height="1000" width="1000" xmlns="http://www.w3.org/2000/svg"><path d="M0 578.088l0 -156.24l150.381 -15.624q13.671 -44.919 37.107 -87.885l-95.697 -117.18 109.368 -109.368 117.18 95.697q41.013 -23.436 87.885 -37.107l15.624 -150.381l156.24 0l15.624 150.381q44.919 13.671 87.885 37.107l117.18 -95.697 109.368 109.368 -95.697 117.18q23.436 42.966 37.107 87.885l150.381 15.624l0 156.24l-150.381 15.624q-13.671 46.872 -37.107 87.885l95.697 117.18 -109.368 109.368 -117.18 -95.697q-42.966 23.436 -87.885 37.107l-15.624 150.381l-156.24 0l-15.624 -150.381q-46.872 -13.671 -87.885 -37.107l-117.18 95.697 -109.368 -109.368 95.697 -117.18q-23.436 -41.013 -37.107 -87.885zm355.446 -78.12q0 60.543 41.989 102.532t102.532 41.989 102.532 -41.989 41.989 -102.532 -41.989 -102.532 -102.532 -41.989 -102.532 41.989 -41.989 102.532z"/></svg>