<svg height="1000" width="996" xmlns="http://www.w3.org/2000/svg"><path d="M.001 638.4l0 -552.699q1.953 -33.201 35.154 -33.201l146.475 0q35.154 1.953 35.154 33.201l0 552.699q-1.953 15.624 -11.718 25.389t-23.436 9.765l-146.475 0q-13.671 -1.953 -24.413 -11.718t-10.742 -23.436zm277.326 -23.436l0 -501.921q1.953 -21.483 15.624 -35.154t33.201 -13.671l458.955 0q35.154 1.953 70.308 21.483 54.684 33.201 70.308 87.885l70.308 429.66q1.953 25.389 -12.694 42.966t-36.13 17.577l-248.031 0q7.812 58.59 21.483 117.18 5.859 89.838 -93.744 158.193 -19.53 13.671 -42.966 5.859 -19.53 -5.859 -31.248 -29.295l-111.321 -251.937l-115.227 0q-21.483 -1.953 -35.154 -15.624t-13.671 -33.201z"/></svg>