<svg height="1000" width="998" xmlns="http://www.w3.org/2000/svg"><path d="M0 913.332l0 -552.699q0 -15.624 9.765 -24.413t25.389 -10.742l146.475 0q33.201 0 35.154 35.154l0 552.699q0 13.671 -9.765 23.436t-25.389 11.718l-146.475 0q-13.671 0 -23.436 -9.765t-11.718 -25.389zm277.326 -27.342l0 -499.968q0 -21.483 13.671 -35.154t37.107 -15.624l113.274 0l113.274 -251.937q13.671 -31.248 41.013 -31.248 37.107 -1.953 93.744 60.543 17.577 25.389 24.413 55.66t5.859 47.849 -8.789 63.473 -9.765 55.66l248.031 0q25.389 0 38.084 16.601t10.742 43.943l-70.308 429.66q-11.718 41.013 -52.731 73.237t-87.885 38.084l-458.955 0q-21.483 0 -35.154 -13.671t-15.624 -37.107z"/></svg>