<svg enable-background="new 0 0 72 72" height="72" viewBox="0 0 72 72" width="72" xmlns="http://www.w3.org/2000/svg"><path d="m26.1 49.8 9.6 21.8c0 .1-.1.1-.1.1l-18.7-21.9zm-8.8-20.1h-17.2c0 .7 1.1 1.6 1.1 1.6l15.7 18.5 6.3-6.7z" fill="#0096d1"/><path d="m71.5 30.5c-.5.5-1.3.5-1.8 0-.2-.2-.4-.6-.4-.9h-14.7l-9.2-10 9.6-10.1 16.3 19.1s0 .1.1.1h.1c.5.6.5 1.4 0 1.8zm-35.6-.8 9.4-10-9.4-10.2-9.4 10.2z" fill="#76dfff"/><path d="m36.3 71.7c-.1.1-.2 0-.1-.1l9.6-21.8h9.2zm12.4-28.6 6.3 6.7 16.4-19.2s.4-.6.4-.9h-17.2z" fill="#59cafc"/><path d="m26.5 19.7-9.2 10h18.6z" fill="#27c7ff"/><path d="m45.4 19.7-9.5 10h18.7z" fill="#b0e9ff"/><path d="m26.5 19.7-9.2 10h-17.2s.1-.6.5-1l15.8-18.5c.1-.1.2-.2.3-.2.2-.3.5-.4.9-.4.7 0 1.2.6 1.2 1.2 0 .2-.1.4-.2.6zm9.4 10 12.8 13.5 5.9-13.5zm-18.6 0 5.9 13.5 12.8-13.5zm8.8 20.1 9.7 22c.1.1.2.1.3 0l9.7-22zm22.6-6.7-2.9 6.7h9.2z" fill="#00b1ff"/><path d="m45.4 19.7-9.5-10.2h.7 18.4zm-9.5-10.2h-.7-17.2c-.4 0-1.2 0-.9.3l9.4 9.9z" fill="#59cafc"/><path d="m23.2 43.1-6.3 6.7h9.2z" fill="#0074a8"/><path d="m23.2 43.1 2.9 6.7h19.7l2.9-6.7-12.8-13.4z" fill="#0096d1"/><path d="m52.7 29.9c2.7.7 4.8 2.8 5.5 5.5.1.3.4.3.5 0 .7-2.7 2.8-4.8 5.5-5.5.3-.1.3-.4 0-.5-2.7-.7-4.8-2.8-5.5-5.5-.1-.3-.4-.3-.5 0-.7 2.7-2.8 4.8-5.5 5.5-.3.1-.3.4 0 .5z" fill="#fff"/><path d="m42.6 3.6c1.4.4 2.5 1.5 2.9 2.9 0 .1.2.1.2 0 .4-1.4 1.5-2.5 2.9-2.9.1 0 .1-.2 0-.2-1.4-.4-2.5-1.5-2.9-2.9 0-.1-.2-.1-.2 0-.4 1.4-1.5 2.5-2.9 2.9-.1 0-.1.2 0 .2z" fill="#b0e9ff"/></svg>