<svg height="1000" width="1000" xmlns="http://www.w3.org/2000/svg"><path fill="#000000" d="M0 999.936l0 -999.936l999.936 0l0 999.936l-999.936 0zm164.052 -728.469q1.953 33.201 25.389 53.708t52.731 22.46l1.953 0q35.154 -1.953 58.59 -23.436t23.436 -52.731q-1.953 -33.201 -25.389 -53.708t-54.684 -20.506q-35.154 0 -58.59 21.483t-23.436 52.731zm7.812 568.323l144.522 0l0 -433.566l-144.522 0l0 433.566zm224.595 0l144.522 0l0 -242.172q0 -23.436 3.906 -35.154 27.342 -52.731 74.214 -52.731 72.261 1.953 72.261 97.65l0 232.407l144.522 0l0 -248.031q-1.953 -97.65 -46.872 -148.428 -46.872 -46.872 -119.133 -48.825 -52.731 1.953 -85.932 25.389 -21.483 15.624 -42.966 46.872l0 -60.543l-144.522 0q1.953 17.577 1.953 70.308 0 89.838 -1.953 363.258z"/></svg>