<svg height="1000" width="1000" xmlns="http://www.w3.org/2000/svg"><path fill="#000000" d="M0 378.899l93.744 0l285.138 1.953 95.697 -269.514 29.295 -89.838 29.295 91.791 87.885 271.467 285.138 5.859 93.744 1.953 -76.167 54.684 -232.407 166.005 82.026 273.42 27.342 91.791 -76.167 -56.637 -230.454 -167.958 -232.407 162.099 -78.12 52.731 29.295 -89.838 89.838 -269.514 -226.548 -173.817zm189.441 64.449l167.958 128.898 19.53 13.671 -7.812 21.483 -66.402 203.112 175.77 -123.039 17.577 -11.718 17.577 13.671 171.864 124.992 -60.543 -203.112 -5.859 -21.483 17.577 -13.671 173.817 -124.992 -214.83 -3.906 -21.483 -1.953 -7.812 -21.483 -64.449 -201.159 -70.308 199.206 -7.812 21.483l-234.36 0z"/></svg>