<svg height="1000" width="1000" xmlns="http://www.w3.org/2000/svg"><path fill="#000000" d="M0 999.938l0 -156.24q0 -23.436 57.614 -57.614t159.169 -71.285q99.603 -35.154 136.71 -72.261t37.107 -101.556q0 -29.295 -26.366 -72.261t-32.224 -58.59q-11.718 -35.154 -29.295 -134.757 -9.765 -52.731 -13.671 -93.744 -1.953 -21.483 5.859 -49.802t28.319 -59.567 66.402 -51.755 110.345 -20.506 110.345 20.506 66.402 51.755 28.319 59.567 5.859 49.802q-3.906 41.013 -13.671 93.744 -17.577 99.603 -29.295 134.757 -5.859 15.624 -32.224 58.59t-26.366 72.261q0 64.449 37.107 101.556t136.71 72.261q216.783 80.073 216.783 128.898l0 156.24l-999.936 0z"/></svg>