<svg height="1000" width="896" xmlns="http://www.w3.org/2000/svg"><path fill="#000000" d="M.448 784.935q7.812 -68.355 66.402 -126.945l382.788 -382.788q117.18 -115.227 210.924 -33.201 83.979 85.932 -35.154 208.971l-353.493 351.54 -66.402 -70.308 349.587 -349.587q1.953 0 7.812 -5.859l7.812 -7.812t6.836 -8.789 6.836 -9.765 5.859 -9.765 3.906 -10.742l0 -9.765t-1.953 -11.718q-19.53 -17.577 -74.214 37.107l-380.835 380.835q-37.107 35.154 -41.013 68.355 -3.906 39.06 35.154 78.12 41.013 33.201 69.332 28.319t71.285 -45.895q82.026 -80.073 217.76 -214.83t194.323 -195.3q1.953 -1.953 17.577 -16.601t17.577 -17.577 14.648 -15.624 15.624 -17.577 11.718 -16.601 12.694 -19.53 10.742 -19.53 10.742 -25.389q15.624 -56.637 -33.201 -123.039t-115.227 -74.214q-68.355 -7.812 -152.334 72.261l-417.942 417.942 -68.355 -66.402 417.942 -419.895q97.65 -95.697 199.206 -100.58t189.441 83.002q105.462 107.415 74.214 236.313 -19.53 74.214 -93.744 150.381 -85.932 83.979 -246.078 244.125l-208.971 208.971q-70.308 70.308 -150.381 72.261 -68.355 0 -124.992 -56.637 -70.308 -70.308 -64.449 -156.24z"/></svg>