<svg height="1000" width="926" xmlns="http://www.w3.org/2000/svg"><path d="M0 853.462q0 -91.791 101.556 -126.945l0 -1.953q-37.107 -21.483 -37.107 -70.308 0 -60.543 35.154 -76.167l0 -1.953q-35.154 -11.718 -62.496 -54.684 -29.295 -44.919 -29.295 -97.65 0 -80.073 54.684 -132.804 54.684 -48.825 128.898 -48.825 52.731 0 99.603 27.342 52.731 0 121.086 -27.342l0 113.274q-15.624 5.859 -42.966 11.718 7.812 25.389 7.812 46.872 0 70.308 -41.989 122.063t-108.392 61.52q-44.919 7.812 -44.919 46.872 0 15.624 15.624 29.295 17.577 21.483 54.684 25.389 156.24 25.389 156.24 130.851 0 169.911 -203.112 169.911 -83.979 0 -136.71 -29.295 -68.355 -37.107 -68.355 -117.18zm115.227 -5.859q0 56.637 95.697 56.637 83.979 0 83.979 -60.543 0 -54.684 -91.791 -54.684 -87.885 0 -87.885 58.59zm11.718 -423.801q0 76.167 68.355 76.167 66.402 0 66.402 -76.167 0 -33.201 -15.624 -54.684 -17.577 -25.389 -50.778 -25.389 -68.355 0 -68.355 80.073zm324.198 -342.752q0 -34.178 22.46 -57.614t53.708 -23.436 53.708 23.436 22.46 57.614 -22.46 57.614 -53.708 23.436 -53.708 -23.436 -22.46 -57.614zm13.671 653.279q3.906 -21.483 3.906 -74.214l0 -341.775q0 -50.778 -3.906 -70.308l124.992 0q-1.953 21.483 -1.953 68.355l0 335.916q0 56.637 1.953 82.026l-124.992 0zm177.723 -380.835l0 -105.462l52.731 0l0 -42.966q0 -31.248 -3.906 -48.825l126.945 0q-1.953 21.483 -1.953 46.872l0 44.919l93.744 0l0 105.462q-3.906 0 -18.553 -.977t-28.319 -.977l-46.872 0l0 203.112q0 74.214 46.872 74.214 35.154 0 62.496 -19.53l0 111.321q-41.013 21.483 -97.65 21.483 -80.073 0 -111.321 -56.637 -21.483 -42.966 -21.483 -134.757l0 -199.206l-15.624 0q-15.624 0 -37.107 1.953z"/></svg>