<svg height="1000" width="988" xmlns="http://www.w3.org/2000/svg"><path d="M.438 235.497q0 -50.778 27.342 -76.167l138.663 -138.663q44.919 -37.107 76.167 13.671l113.274 210.924q17.577 39.06 -13.671 70.308l-50.778 52.731q-5.859 5.859 -5.859 13.671 25.389 97.65 132.804 195.3l30.271 30.271t36.13 33.201 34.178 26.366 41.013 25.389 40.037 13.671q19.53 5.859 27.342 -1.953l60.543 -60.543q39.06 -29.295 72.261 -11.718l203.112 121.086q21.483 13.671 24.413 37.107t-12.694 39.06l-140.616 138.663q-27.342 27.342 -74.214 27.342 -140.616 -3.906 -318.339 -121.086 -257.796 -185.535 -374.976 -406.224 -72.261 -150.381 -66.402 -232.407z"/></svg>