<svg height="1000" width="1000" xmlns="http://www.w3.org/2000/svg"><path d="M0 447.237q0 -185.535 130.851 -316.386t316.386 -130.851 317.363 130.851 131.828 316.386q0 140.616 -82.026 255.843l185.535 185.535 -111.321 111.321 -185.535 -185.535q-115.227 82.026 -255.843 82.026 -185.535 0 -316.386 -131.828t-130.851 -317.363zm126.945 0q0 132.804 93.744 226.548t226.548 93.744 226.548 -93.744 93.744 -226.548 -93.744 -225.572 -226.548 -92.767 -226.548 92.767 -93.744 225.572zm128.898 64.449l0 -126.945l128.898 0l0 -128.898l126.945 0l0 128.898l128.898 0l0 126.945l-128.898 0l0 128.898l-126.945 0l0 -128.898l-128.898 0z"/></svg>