<svg height="1000" width="953" xmlns="http://www.w3.org/2000/svg"><path d="M.838 329.094q6.836 -115.227 79.097 -191.394l1.953 0l1.953 -1.953q87.885 -76.167 199.206 -76.167t191.394 70.308q31.248 -27.342 66.402 -44.919l1.953 -1.953l1.953 0q56.637 -23.436 117.18 -23.436 87.885 -1.953 161.123 43.943t110.345 124.016l0 1.953l1.953 3.906q29.295 105.462 9.765 201.159t-80.073 175.77q-62.496 87.885 -162.099 171.864 0 1.953 -1.953 1.953 -48.825 44.919 -107.415 89.838 -33.201 25.389 -58.59 41.013 -33.201 23.436 -54.684 23.436l-5.859 1.953 -5.859 -1.953q-27.342 -3.906 -58.59 -29.295 -9.765 -5.859 -21.483 -16.601t-15.624 -12.694l-1.953 0q-246.078 -187.488 -328.104 -339.822l0 -1.953q-48.825 -93.744 -41.989 -208.971zm84.956 9.765q-5.859 85.932 33.201 162.099 74.214 134.757 302.715 310.527l1.953 0q5.859 5.859 18.553 15.624t18.553 13.671q7.812 5.859 15.624 9.765 7.812 -1.953 13.671 -5.859 21.483 -13.671 50.778 -37.107 58.59 -42.966 105.462 -87.885 93.744 -80.073 150.381 -160.146 107.415 -142.569 58.59 -298.809 -27.342 -56.637 -78.12 -87.885t-113.274 -29.295q-42.966 0 -85.932 17.577 -39.06 21.483 -68.355 56.637l-31.248 42.966 -35.154 -42.966q-52.731 -64.449 -141.593 -72.261t-161.123 52.731q-48.825 54.684 -54.684 140.616z"/></svg>