<svg height="1000" width="490" xmlns="http://www.w3.org/2000/svg"><path d="M0 146.475q1.953 -48.825 84.956 -97.65t147.452 -48.825q121.086 0 191.394 72.261 66.402 68.355 66.402 162.099 0 48.825 -9.765 79.097t-44.919 83.002q-3.906 7.812 -58.59 75.191t-77.144 119.133 -12.694 104.486l-93.744 -1.953q-29.295 -66.402 -26.366 -130.851t28.319 -119.133q13.671 -31.248 40.037 -74.214t40.037 -74.214q19.53 -44.919 -13.671 -88.862t-76.167 -43.943q-39.06 0 -59.567 14.648t-34.178 47.849l-76.167 0q-21.483 -11.718 -15.624 -78.12zm123.039 740.187q0 -46.872 33.201 -80.073t80.073 -33.201 80.073 33.201 33.201 80.073 -33.201 80.073 -80.073 33.201 -80.073 -33.201 -33.201 -80.073z"/></svg>